<?xml version="1.0" encoding="utf-8"?>
<!-- Generator: Adobe Illustrator 22.0.0, SVG Export Plug-In . SVG Version: 6.00 Build 0)  -->
<svg version="1.1" id="Capa_1" xmlns="http://www.w3.org/2000/svg" xmlns:xlink="http://www.w3.org/1999/xlink" x="0px" y="0px"
	 viewBox="0 0 595.3 841.9" style="enable-background:new 0 0 595.3 841.9;" xml:space="preserve">
<style type="text/css">
	.st0{fill:none;stroke:#FFFFFF;stroke-width:15;stroke-miterlimit:10;}
	.st1{fill:none;stroke:#FFFFFF;stroke-width:10;stroke-miterlimit:10;}
</style>
<path class="st0" d="M330.9,497.4L330.9,497.4l244.7-445l-12.2-6.7L318.9,490.2c-16.3-6-35,0.5-43.8,16.2c0,0-53.8,9.8-73.9,28.6
	C179.7,555.1,126,646,107,654.5c-12.9,5.8-26.5,14-26.5,14c0,9.5,23.6,23.6,43.3,21.1c17.3-2.1,69.7-75.6,69.7-75.6
	S171,653,135,691.5c0,0,59.5,9.8,74.9,2.5c18.7-8.9,65.3-82.4,65.3-82.4s-37.6,69.2-58.9,84.4c0,0,47.6,8.4,58.9,4
	c25.6-9.9,56.9-63.2,62.8-90c3.7-16.7,0-68.4,0-68.4l-0.9-0.5c0.6,0.3,0.9,0.5,0.9,0.5C346.3,526.6,343.3,508.4,330.9,497.4z
	 M333.2,539l-2.4-1.4C331.7,538.1,332.5,538.6,333.2,539z M330.6,537.5l-10.5-5.9C324.2,533.9,327.8,535.9,330.6,537.5z
	 M320.1,531.6l-2.7-1.5C318.3,530.6,319.2,531.1,320.1,531.6z M308.7,525.2l-10.9-6.1c2.8,1.5,5.7,3.2,8.7,4.9
	C307.2,524.4,308,524.8,308.7,525.2z M317.1,529.9l-6.7-3.7C312.7,527.5,315,528.7,317.1,529.9z M276.6,507.2l-1-0.6
	C275.8,506.8,276.1,506.9,276.6,507.2z M283.8,511.3l-6.1-3.4C279.2,508.7,281.3,509.8,283.8,511.3z M293.6,516.7
	c0.5,0.3,1,0.5,1.5,0.8L293.6,516.7z M287.7,513.4c0.1,0,0.1,0.1,0.2,0.1L287.7,513.4z M291.1,515.3c0.3,0.2,0.6,0.3,0.8,0.5
	L291.1,515.3z M335.3,540.1c0.4,0.2,0.8,0.5,1.2,0.7L335.3,540.1z"/>
<line class="st0" x1="538.3" y1="74.9" x2="538.3" y2="91.3"/>
<polyline class="st0" points="57.3,760.6 57.3,80.4 538.3,82.4 "/>
<line class="st0" x1="118" y1="191" x2="456" y2="191"/>
<line class="st0" x1="118" y1="295" x2="426.3" y2="295"/>
<line class="st0" x1="118" y1="413" x2="361.4" y2="413"/>
<line class="st0" x1="118" y1="515.3" x2="240.3" y2="515.3"/>
<line class="st0" x1="341.4" y1="515.3" x2="456" y2="515.3"/>
<line class="st0" x1="377.3" y1="413" x2="456" y2="413"/>
<line class="st0" x1="442.2" y1="295" x2="455.7" y2="295"/>
<line class="st0" x1="49.9" y1="760.6" x2="545.8" y2="760.6"/>
<line class="st0" x1="538.3" y1="120.2" x2="538.3" y2="760.6"/>
<polygon class="st1" points="90.8,587.9 86.5,580.2 78.7,576 86.4,571.7 90.6,563.9 94.9,571.6 102.7,575.8 95,580.1 "/>
<polygon class="st1" points="106.6,614.4 103.9,609.7 99,607.1 103.8,604.4 106.3,599.6 109,604.3 113.8,606.9 109.1,609.6 "/>
</svg>
